<svg width="1600" height="1000" viewBox="0 0 1600 1000" fill="none" xmlns="http://www.w3.org/2000/svg">
  <rect width="1600" height="1000" rx="36" fill="#11141C"/>
  <rect x="64" y="64" width="1472" height="872" rx="30" fill="#171B24" stroke="#404754"/>
  <rect x="108" y="108" width="312" height="784" rx="24" fill="#10141B" stroke="#383F4C"/>
  <text x="146" y="170" fill="#F5A623" font-family="monospace" font-size="24">LabLane</text>
  <rect x="146" y="226" width="236" height="52" rx="16" fill="#F5A623" fill-opacity="0.15" stroke="#F5A623" stroke-opacity="0.4"/>
  <rect x="146" y="308" width="236" height="52" rx="16" fill="#1B202B"/>
  <rect x="146" y="390" width="236" height="52" rx="16" fill="#1B202B"/>
  <rect x="146" y="472" width="236" height="52" rx="16" fill="#1B202B"/>
  <rect x="460" y="108" width="1032" height="160" rx="24" fill="#10141B" stroke="#383F4C"/>
  <text x="508" y="172" fill="#F5F1EA" font-family="sans-serif" font-size="40" font-weight="700">Project Submission Dashboard</text>
  <text x="508" y="220" fill="#A4AAB6" font-family="sans-serif" font-size="24">Track status, reviewers, and delivery progress across student teams.</text>
  <rect x="460" y="308" width="494" height="248" rx="24" fill="#10141B" stroke="#383F4C"/>
  <rect x="998" y="308" width="494" height="248" rx="24" fill="#10141B" stroke="#383F4C"/>
  <rect x="460" y="596" width="1032" height="296" rx="24" fill="#10141B" stroke="#383F4C"/>
  <text x="508" y="364" fill="#F5A623" font-family="monospace" font-size="22">Pending Review</text>
  <text x="1046" y="364" fill="#F5A623" font-family="monospace" font-size="22">Recent Activity</text>
  <text x="508" y="426" fill="#F5F1EA" font-family="sans-serif" font-size="30">Embedded Vision Robot</text>
  <text x="508" y="470" fill="#A4AAB6" font-family="sans-serif" font-size="22">Assigned reviewer: Faculty Advisor</text>
  <circle cx="1046" cy="426" r="10" fill="#4BC270"/>
  <text x="1072" y="434" fill="#F5F1EA" font-family="sans-serif" font-size="24">Team Delta submitted revision 2</text>
  <circle cx="1046" cy="480" r="10" fill="#F5A623"/>
  <text x="1072" y="488" fill="#F5F1EA" font-family="sans-serif" font-size="24">Lab access approval requested</text>
  <text x="508" y="652" fill="#F5A623" font-family="monospace" font-size="22">Resource Allocation</text>
  <rect x="508" y="692" width="936" height="34" rx="17" fill="#202633"/>
  <rect x="508" y="692" width="618" height="34" rx="17" fill="#F5A623"/>
  <text x="508" y="776" fill="#F5F1EA" font-family="sans-serif" font-size="26">68% of lab equipment slots assigned this week</text>
</svg>
